<?xml version="1.0" standalone="no"?>
<!DOCTYPE svg PUBLIC "-//W3C//DTD SVG 20010904//EN"
 "http://www.w3.org/TR/2001/REC-SVG-20010904/DTD/svg10.dtd">
<svg version="1.0" xmlns="http://www.w3.org/2000/svg"
 width="1683.000000pt" height="1495.000000pt" viewBox="0 0 1683.000000 1495.000000"
 preserveAspectRatio="xMidYMid meet">
<metadata>
Created by potrace 1.16, written by Peter Selinger 2001-2019
</metadata>
<g transform="translate(0.000000,1495.000000) scale(0.100000,-0.100000)"
fill="#000000" stroke="none">
<path d="M8318 14394 c-37 -8 -104 -30 -147 -48 -215 -91 -371 -245 -515 -508
-74 -137 -90 -141 -526 -158 -314 -11 -348 -21 -452 -118 -144 -135 -291 -331
-358 -476 -59 -128 -118 -171 -313 -230 -299 -91 -577 -308 -700 -545 -179
-345 -383 -1721 -468 -3166 -7 -106 -10 -371 -8 -600 5 -699 3 -765 -31 -765
-40 0 -61 -56 -141 -375 -144 -580 -183 -922 -183 -1615 0 -403 8 -548 50
-920 73 -658 175 -1114 379 -1695 222 -630 240 -690 269 -875 18 -115 32 -329
46 -710 25 -676 58 -851 160 -861 47 -4 58 1 79 34 27 44 53 159 91 392 35
223 65 328 127 445 40 77 44 90 40 140 -2 30 -12 84 -21 120 -30 111 7 155
107 131 79 -19 127 -24 127 -14 0 25 -71 113 -207 255 -82 87 -178 197 -213
245 -597 837 -952 2505 -815 3828 40 385 87 695 136 887 49 196 93 298 185
430 98 140 138 243 120 311 -3 13 -19 38 -36 54 -28 28 -30 35 -40 149 -13
154 -13 1178 0 1584 25 816 53 1114 146 1580 103 520 257 966 392 1136 68 86
197 152 352 179 92 17 123 11 156 -27 88 -106 95 -257 100 -2293 l5 -1590 -85
-65 c-115 -88 -239 -157 -436 -240 -218 -93 -280 -136 -254 -177 21 -34 67
-28 118 16 52 45 83 51 142 26 24 -10 34 -20 32 -31 -2 -10 -36 -45 -76 -78
-102 -85 -134 -140 -100 -174 22 -22 56 -13 170 46 218 110 516 329 501 368
-7 18 -4 18 43 -2 52 -22 85 -13 180 51 166 111 335 186 531 236 167 42 283
37 298 -12 11 -35 -34 -98 -219 -304 -96 -108 -166 -207 -166 -237 0 -28 43
-23 109 12 80 43 207 141 340 261 357 327 568 455 836 510 76 16 287 16 342 0
53 -15 87 -55 103 -123 15 -61 25 -78 51 -78 10 0 85 22 167 50 251 84 534
118 917 107 305 -8 355 -25 495 -166 132 -132 197 -255 241 -458 42 -196 36
-731 -11 -1006 -23 -135 -54 -233 -124 -392 -64 -144 -105 -255 -115 -310 l-7
-40 -63 0 c-61 0 -65 -2 -81 -30 -22 -41 -75 -67 -205 -105 -330 -94 -717
-327 -1145 -689 -176 -148 -473 -448 -625 -630 -160 -192 -291 -329 -420 -440
-324 -278 -679 -683 -743 -848 -23 -59 -46 -152 -39 -159 7 -7 92 99 242 306
223 305 368 460 432 460 54 0 46 -29 -102 -340 -108 -226 -145 -321 -145 -369
0 -34 23 -61 50 -61 26 0 60 47 60 82 0 42 17 68 56 84 34 14 35 16 28 59 -6
43 -4 48 35 90 53 57 108 144 206 320 118 212 166 291 320 525 153 231 247
348 480 590 161 168 275 305 275 330 0 27 20 38 59 33 47 -6 77 9 185 91 146
111 397 249 478 262 30 5 38 3 47 -15 9 -17 7 -34 -13 -88 -13 -38 -72 -198
-131 -358 -178 -485 -207 -607 -123 -517 45 47 113 161 240 403 131 247 190
344 234 378 32 25 38 26 58 6 27 -28 35 -86 37 -264 0 -106 4 -170 10 -164 15
15 248 493 354 728 146 321 217 450 342 612 99 129 151 154 179 88 7 -19 14
-50 14 -70 0 -50 22 -96 61 -129 29 -25 39 -28 89 -24 63 5 108 32 136 83 29
54 14 166 -55 426 -135 508 -141 636 -42 938 75 227 289 691 388 839 66 100
209 247 303 314 94 67 195 116 275 133 62 14 82 14 180 1 61 -8 134 -22 162
-32 101 -33 168 -112 242 -285 56 -130 71 -213 71 -378 0 -209 -5 -247 -149
-1226 -39 -266 -116 -870 -186 -1465 -107 -906 -124 -1025 -156 -1117 -93
-264 -420 -937 -588 -1208 -222 -360 -1074 -1162 -1527 -1438 -110 -67 -148
-83 -235 -101 -74 -16 -128 -41 -174 -81 -22 -19 -25 -25 -10 -20 42 14 132
17 154 6 37 -21 45 -57 21 -107 -39 -80 -161 -163 -411 -279 -155 -72 -244
-122 -273 -154 -17 -19 -17 -21 -2 -27 9 -4 42 -4 74 0 279 30 340 14 361 -98
5 -27 15 -52 22 -57 21 -13 65 -11 156 7 106 21 134 12 168 -56 45 -88 139
-435 156 -573 12 -102 25 -144 49 -157 32 -17 55 -11 87 23 109 114 203 492
203 815 0 239 40 446 114 598 53 107 96 166 241 334 153 178 325 394 407 513
79 115 118 163 233 292 44 50 108 127 142 171 262 344 624 1020 767 1433 121
348 196 852 301 2035 59 659 103 969 246 1726 52 277 62 347 66 476 5 135 3
159 -15 220 -27 86 -85 176 -171 263 -103 104 -112 106 -466 106 -328 0 -356
-4 -500 -77 -132 -66 -206 -122 -316 -236 -240 -249 -307 -346 -474 -687 -62
-126 -123 -241 -136 -254 l-22 -24 -18 22 c-40 50 -61 257 -109 1091 -29 512
-67 1105 -91 1410 -19 253 -139 1542 -159 1720 -92 779 -235 1153 -514 1342
-152 104 -259 103 -487 -3 -174 -81 -232 -70 -265 51 -58 211 -157 333 -354
434 -160 83 -309 105 -472 70z m310 -159 c92 -22 130 -45 209 -128 74 -78 97
-123 124 -242 20 -85 17 -835 -4 -1310 -44 -980 -43 -1459 3 -1809 35 -266 43
-440 37 -831 -6 -376 -22 -579 -51 -649 -11 -27 -18 -33 -38 -29 -16 3 -41 -7
-78 -33 -64 -43 -125 -66 -248 -93 -205 -46 -602 -76 -652 -49 -58 31 -28 121
71 219 49 48 60 65 57 87 -4 38 -61 64 -202 92 l-116 23 0 38 c0 22 -12 355
-27 742 -24 617 -27 812 -27 1607 -1 911 4 1107 40 1500 16 179 27 259 50 362
17 72 72 161 206 330 61 77 78 92 141 123 40 19 104 41 142 49 93 19 283 20
363 1z m1173 -555 c75 -28 125 -66 184 -140 166 -205 214 -399 270 -1090 37
-449 72 -813 105 -1095 16 -137 35 -329 42 -425 14 -202 16 -1033 4 -1431 l-8
-266 -89 -12 c-110 -14 -186 -42 -239 -86 -54 -45 -126 -60 -251 -51 -128 9
-326 50 -358 74 -24 18 -26 25 -26 108 0 101 9 94 -103 79 -38 -6 -60 -4 -78
6 -52 28 -86 134 -103 329 -28 309 -39 3355 -12 3570 38 313 382 537 662 430z
m-2644 -165 c238 -71 332 -248 384 -730 6 -59 14 -521 19 -1125 6 -748 13
-1085 24 -1245 41 -584 5 -1058 -95 -1256 -43 -86 -88 -104 -295 -119 -171
-12 -213 -33 -355 -173 -119 -117 -185 -157 -261 -157 -39 0 -54 6 -83 31 -20
18 -39 47 -45 67 -19 73 -31 625 -37 1732 -10 1970 16 2430 154 2692 64 123
194 237 318 280 63 22 203 24 272 3z"/>
<path d="M8460 12259 c-108 -24 -178 -59 -225 -110 -49 -54 -44 -74 17 -72 61
2 159 53 261 138 89 74 86 76 -53 44z"/>
<path d="M8361 11991 c-55 -19 -102 -49 -109 -69 -6 -20 130 -15 193 7 58 20
115 56 115 72 0 16 -142 9 -199 -10z"/>
<path d="M8366 10454 c-78 -19 -126 -49 -126 -79 0 -40 23 -49 75 -31 43 14
166 94 180 116 9 14 -59 11 -129 -6z"/>
<path d="M9603 12320 c-87 -43 -143 -130 -85 -130 41 0 287 134 277 151 -4 5
-34 9 -69 9 -50 0 -75 -6 -123 -30z"/>
<path d="M9720 12161 c-50 -16 -116 -54 -152 -89 -46 -44 -52 -86 -13 -104 21
-9 34 -6 87 20 77 38 133 83 154 125 15 28 15 31 -2 44 -20 14 -36 15 -74 4z"/>
<path d="M9680 10773 c-34 -13 -70 -46 -70 -63 0 -29 36 -43 102 -38 67 5 105
31 94 65 -11 34 -79 53 -126 36z"/>
<path d="M9650 10604 c-86 -28 -113 -55 -85 -83 25 -26 178 -22 230 5 76 40
39 84 -70 83 -33 0 -67 -3 -75 -5z"/>
<path d="M7045 11946 c-54 -17 -80 -31 -142 -78 -107 -79 -44 -91 101 -18 96
47 142 82 132 98 -9 15 -40 14 -91 -2z"/>
<path d="M7050 11761 c-106 -34 -218 -101 -204 -122 6 -11 54 -1 139 28 172
61 232 148 65 94z"/>
<path d="M6984 10131 c-54 -25 -84 -64 -84 -112 0 -54 34 -79 109 -79 63 0
109 22 137 65 25 38 8 47 -53 29 -56 -16 -93 -8 -93 22 0 16 30 49 70 76 l25
17 -35 0 c-19 0 -53 -8 -76 -18z"/>
<path d="M5857 11105 c-144 -53 -368 -205 -302 -205 25 0 300 96 330 116 37
24 60 71 44 90 -14 17 -23 17 -72 -1z"/>
<path d="M5834 10915 c-62 -31 -258 -174 -250 -182 5 -6 208 67 272 98 34 16
77 43 95 60 32 30 33 32 14 45 -29 21 -56 17 -131 -21z"/>
<path d="M5611 9860 c-29 -11 -69 -31 -88 -46 -32 -24 -33 -28 -18 -37 26 -14
144 -3 188 18 23 11 40 27 43 42 12 46 -35 55 -125 23z"/>
<path d="M12250 8515 c-29 -35 -4 -162 40 -207 35 -34 44 -35 75 -3 20 19 25
34 25 77 0 59 -20 99 -66 129 -35 23 -57 24 -74 4z"/>
<path d="M9175 7715 c-49 -13 -202 -64 -340 -113 -760 -273 -989 -369 -1082
-455 -41 -38 -50 -42 -101 -43 -72 -2 -166 -38 -422 -165 -547 -270 -1160
-652 -1160 -722 0 -51 131 21 142 78 3 16 10 19 38 17 87 -7 101 -3 195 53
189 113 886 425 1073 480 151 45 1433 675 1715 842 54 33 72 54 45 53 -7 -1
-53 -12 -103 -25z"/>
<path d="M9321 6724 c-235 -125 -553 -327 -706 -449 -49 -39 -200 -152 -335
-250 -770 -562 -1102 -833 -1119 -915 -7 -35 -7 -35 -57 -32 -100 7 -240 -88
-537 -362 -292 -271 -707 -698 -781 -805 -43 -61 -14 -91 54 -56 73 38 415
352 731 672 248 251 329 343 329 375 0 17 4 19 23 13 50 -16 77 -16 106 -2 16
8 153 111 303 228 292 228 468 389 468 428 0 21 4 23 33 17 55 -10 178 57 383
210 61 45 136 110 167 143 56 61 77 74 77 46 0 -36 36 -16 180 100 63 51 202
154 309 230 325 228 501 388 501 453 0 21 -21 14 -129 -44z"/>
<path d="M5300 5992 c-125 -17 -341 -138 -391 -219 -19 -30 -20 -37 -8 -60 21
-39 44 -47 94 -30 72 25 414 227 449 266 18 20 18 21 -5 29 -30 11 -105 19
-139 14z"/>
<path d="M7550 2460 c-129 -17 -279 -68 -490 -165 -238 -110 -381 -157 -514
-169 -134 -13 -164 -45 -126 -135 39 -89 107 -136 250 -172 166 -42 296 -17
545 106 330 162 572 380 534 482 -17 47 -94 67 -199 53z"/>
<path d="M8535 2273 c-97 -5 -135 -14 -165 -40 -31 -25 -48 -27 -109 -7 -77
24 49 -76 274 -218 198 -124 325 -178 424 -178 95 0 262 80 338 163 70 76 75
143 13 189 -66 48 -530 103 -775 91z"/>
<path d="M6029 1726 c-52 -26 -49 -136 8 -244 19 -37 46 -87 59 -112 33 -63
43 -124 31 -201 -15 -100 -3 -155 44 -202 38 -38 41 -39 93 -35 67 6 112 37
162 113 62 92 135 131 336 175 260 57 291 77 269 165 -6 24 -11 57 -11 73 0
37 26 48 133 56 43 3 106 13 140 21 66 17 225 92 267 126 l25 20 -180 -5
c-191 -5 -284 -17 -539 -67 -228 -45 -286 -41 -511 39 -212 74 -295 94 -326
78z"/>
</g>
</svg>
